<svg width="987" height="649" viewBox="0 0 987 649" fill="none" xmlns="http://www.w3.org/2000/svg">
<g id="citizen-logo1 1">
<g id="Group 1000004470">
<path id="Polygon 3" d="M213.549 397.351C203.313 415.802 176.786 415.802 166.55 397.349L47.6126 182.974C37.672 165.057 50.6257 143.049 71.1125 143.049H308.986C329.473 143.049 342.427 165.057 332.487 182.974L213.549 397.351Z" fill="#004AAD"/>
<path id="Polygon 4" d="M837.449 397.351C827.213 415.802 800.687 415.802 790.451 397.349L671.513 182.974C661.573 165.057 674.527 143.049 695.014 143.049H932.887C953.374 143.049 966.328 165.057 956.388 182.974L837.449 397.351Z" fill="#004AAD"/>
<path id="Polygon 2" d="M478.503 42.3365C488.741 23.8908 515.259 23.891 525.497 42.3365L749.996 446.821C759.94 464.738 746.986 486.75 726.497 486.75H277.503C257.014 486.75 244.06 464.738 254.004 446.821L478.503 42.3365Z" fill="#004AAD"/>
</g>
</g>
</svg>