<svg xmlns="http://www.w3.org/2000/svg" xmlns:xlink="http://www.w3.org/1999/xlink" width="1479" zoomAndPan="magnify" viewBox="0 0 1109.25 419.999985" height="560" preserveAspectRatio="xMidYMid meet" version="1.0"><defs><g/><clipPath id="8ee5631902"><path d="M 0 0.140625 L 1108.5 0.140625 L 1108.5 419.855469 L 0 419.855469 Z M 0 0.140625 " clip-rule="nonzero"/></clipPath><clipPath id="472cd636a7"><path d="M 0 59.726562 L 149.898438 59.726562 L 149.898438 359.523438 L 0 359.523438 Z M 0 59.726562 " clip-rule="nonzero"/></clipPath><clipPath id="75f72e440c"><path d="M 8.992188 59.726562 L 140.90625 59.726562 C 143.289062 59.726562 145.578125 60.675781 147.265625 62.359375 C 148.949219 64.046875 149.898438 66.335938 149.898438 68.71875 L 149.898438 350.53125 C 149.898438 352.914062 148.949219 355.203125 147.265625 356.890625 C 145.578125 358.578125 143.289062 359.523438 140.90625 359.523438 L 8.992188 359.523438 C 6.609375 359.523438 4.320312 358.578125 2.632812 356.890625 C 0.949219 355.203125 0 352.914062 0 350.53125 L 0 68.71875 C 0 63.753906 4.027344 59.726562 8.992188 59.726562 Z M 8.992188 59.726562 " clip-rule="nonzero"/></clipPath><clipPath id="eeac3c10c4"><path d="M 27.125 94.503906 L 123 94.503906 L 123 324.597656 L 27.125 324.597656 Z M 27.125 94.503906 " clip-rule="nonzero"/></clipPath></defs><g clip-path="url(#8ee5631902)"><path fill="#ffffff" d="M 0 0.140625 L 1108.5 0.140625 L 1108.5 419.859375 L 0 419.859375 Z M 0 0.140625 " fill-opacity="1" fill-rule="nonzero"/></g><g clip-path="url(#472cd636a7)"><g clip-path="url(#75f72e440c)"><path fill="#004aad" d="M 0 59.726562 L 149.898438 59.726562 L 149.898438 359.523438 L 0 359.523438 Z M 0 59.726562 " fill-opacity="1" fill-rule="nonzero"/></g></g><g clip-path="url(#eeac3c10c4)"><path fill="#ffffff" d="M 122.789062 101.175781 C 95.445312 127.003906 76.996094 147.929688 67.441406 163.964844 C 57.886719 180.003906 53.117188 196.625 53.117188 213.839844 C 53.117188 221.933594 54.398438 228.417969 56.976562 233.269531 C 59.550781 238.117188 63.058594 241.832031 67.511719 244.40625 C 71.960938 246.984375 79.5625 249.363281 90.332031 251.5625 C 102.980469 254.011719 111.40625 257.167969 115.613281 261.058594 C 119.832031 264.9375 121.933594 270.085938 121.933594 276.503906 C 121.933594 285.445312 118.324219 293.695312 111.113281 301.25 C 103.902344 308.800781 93.929688 316.460938 81.195312 324.226562 L 72.90625 315.234375 C 90.042969 304.097656 98.613281 293.082031 98.613281 282.199219 C 98.613281 277.222656 97.320312 273.867188 94.753906 272.136719 C 92.179688 270.40625 85.882812 268.53125 75.859375 266.5 C 56.199219 262.789062 43.152344 256.691406 36.738281 248.207031 C 30.332031 239.722656 27.125 229.15625 27.125 216.492188 C 27.125 200.464844 32.34375 184.234375 42.785156 167.824219 C 53.222656 151.410156 70.671875 132.875 95.105469 112.191406 L 95.105469 110.925781 L 35.132812 110.925781 L 35.132812 94.976562 L 122.789062 94.976562 Z M 122.789062 101.175781 " fill-opacity="1" fill-rule="nonzero"/></g><g fill="#000000" fill-opacity="1"><g transform="translate(214.581459, 302.562307)"><g><path d="M 133.40625 -7.25 C 128.070312 -3.414062 121.285156 -0.664062 113.046875 1 C 104.804688 2.664062 96.351562 3.5 87.6875 3.5 C 77.195312 3.5 67.242188 1.875 57.828125 -1.375 C 48.421875 -4.625 40.132812 -9.867188 32.96875 -17.109375 C 25.8125 -24.359375 20.109375 -33.769531 15.859375 -45.34375 C 11.617188 -56.914062 9.5 -70.945312 9.5 -87.4375 C 9.5 -104.59375 11.867188 -118.957031 16.609375 -130.53125 C 21.359375 -142.101562 27.519531 -151.429688 35.09375 -158.515625 C 42.675781 -165.597656 51.128906 -170.675781 60.453125 -173.75 C 69.785156 -176.832031 79.113281 -178.375 88.4375 -178.375 C 98.425781 -178.375 106.878906 -177.707031 113.796875 -176.375 C 120.710938 -175.039062 126.414062 -173.457031 130.90625 -171.625 L 124.171875 -142.65625 C 120.335938 -144.488281 115.796875 -145.816406 110.546875 -146.640625 C 105.296875 -147.472656 98.925781 -147.890625 91.4375 -147.890625 C 77.613281 -147.890625 66.492188 -142.976562 58.078125 -133.15625 C 49.671875 -123.332031 45.46875 -108.09375 45.46875 -87.4375 C 45.46875 -78.445312 46.46875 -70.242188 48.46875 -62.828125 C 50.46875 -55.421875 53.503906 -49.09375 57.578125 -43.84375 C 61.660156 -38.59375 66.738281 -34.507812 72.8125 -31.59375 C 78.894531 -28.6875 85.9375 -27.234375 93.9375 -27.234375 C 101.425781 -27.234375 107.753906 -27.984375 112.921875 -29.484375 C 118.085938 -30.984375 122.582031 -32.894531 126.40625 -35.21875 Z M 133.40625 -7.25 "/></g></g></g><g fill="#000000" fill-opacity="1"><g transform="translate(359.232, 302.562307)"><g><path d="M 16.984375 -124.90625 L 49.46875 -124.90625 L 49.46875 0 L 16.984375 0 Z M 12.234375 -160.140625 C 12.234375 -164.972656 14.023438 -169.09375 17.609375 -172.5 C 21.191406 -175.914062 26.144531 -177.625 32.46875 -177.625 C 38.800781 -177.625 43.925781 -175.914062 47.84375 -172.5 C 51.757812 -169.09375 53.71875 -164.972656 53.71875 -160.140625 C 53.71875 -155.304688 51.757812 -151.265625 47.84375 -148.015625 C 43.925781 -144.773438 38.800781 -143.15625 32.46875 -143.15625 C 26.144531 -143.15625 21.191406 -144.773438 17.609375 -148.015625 C 14.023438 -151.265625 12.234375 -155.304688 12.234375 -160.140625 Z M 12.234375 -160.140625 "/></g></g></g><g fill="#000000" fill-opacity="1"><g transform="translate(431.432386, 302.562307)"><g><path d="M 1.25 -124.90625 L 18.484375 -124.90625 L 18.484375 -148.390625 L 50.96875 -157.640625 L 50.96875 -124.90625 L 81.4375 -124.90625 L 81.4375 -97.4375 L 50.96875 -97.4375 L 50.96875 -49.46875 C 50.96875 -40.800781 51.84375 -34.59375 53.59375 -30.84375 C 55.34375 -27.101562 58.628906 -25.234375 63.453125 -25.234375 C 66.785156 -25.234375 69.660156 -25.566406 72.078125 -26.234375 C 74.492188 -26.898438 77.195312 -27.898438 80.1875 -29.234375 L 85.9375 -4.25 C 81.445312 -2.082031 76.203125 -0.25 70.203125 1.25 C 64.203125 2.75 58.125 3.5 51.96875 3.5 C 40.46875 3.5 32.007812 0.546875 26.59375 -5.359375 C 21.1875 -11.273438 18.484375 -20.976562 18.484375 -34.46875 L 18.484375 -97.4375 L 1.25 -97.4375 Z M 1.25 -124.90625 "/></g></g></g><g fill="#000000" fill-opacity="1"><g transform="translate(523.619045, 302.562307)"><g><path d="M 16.984375 -124.90625 L 49.46875 -124.90625 L 49.46875 0 L 16.984375 0 Z M 12.234375 -160.140625 C 12.234375 -164.972656 14.023438 -169.09375 17.609375 -172.5 C 21.191406 -175.914062 26.144531 -177.625 32.46875 -177.625 C 38.800781 -177.625 43.925781 -175.914062 47.84375 -172.5 C 51.757812 -169.09375 53.71875 -164.972656 53.71875 -160.140625 C 53.71875 -155.304688 51.757812 -151.265625 47.84375 -148.015625 C 43.925781 -144.773438 38.800781 -143.15625 32.46875 -143.15625 C 26.144531 -143.15625 21.191406 -144.773438 17.609375 -148.015625 C 14.023438 -151.265625 12.234375 -155.304688 12.234375 -160.140625 Z M 12.234375 -160.140625 "/></g></g></g><g fill="#000000" fill-opacity="1"><g transform="translate(595.819431, 302.562307)"><g><path d="M 7.75 -27.484375 L 56.953125 -86.6875 L 69.703125 -97.4375 L 7.75 -97.4375 L 7.75 -124.90625 L 105.671875 -124.90625 L 105.671875 -97.4375 L 56.953125 -37.21875 L 44.46875 -27.484375 L 105.671875 -27.484375 L 105.671875 0 L 7.75 0 Z M 7.75 -27.484375 "/></g></g></g><g fill="#000000" fill-opacity="1"><g transform="translate(715.237341, 302.562307)"><g><path d="M 114.171875 -10.75 C 109.171875 -6.75 102.378906 -3.375 93.796875 -0.625 C 85.222656 2.125 76.109375 3.5 66.453125 3.5 C 46.296875 3.5 31.554688 -2.367188 22.234375 -14.109375 C 12.910156 -25.859375 8.25 -41.972656 8.25 -62.453125 C 8.25 -84.441406 13.492188 -100.929688 23.984375 -111.921875 C 34.472656 -122.910156 49.210938 -128.40625 68.203125 -128.40625 C 74.535156 -128.40625 80.695312 -127.570312 86.6875 -125.90625 C 92.6875 -124.25 98.015625 -121.503906 102.671875 -117.671875 C 107.335938 -113.835938 111.085938 -108.671875 113.921875 -102.171875 C 116.753906 -95.679688 118.171875 -87.609375 118.171875 -77.953125 C 118.171875 -74.453125 117.960938 -70.703125 117.546875 -66.703125 C 117.128906 -62.703125 116.503906 -58.539062 115.671875 -54.21875 L 40.71875 -54.21875 C 41.21875 -43.71875 43.925781 -35.800781 48.84375 -30.46875 C 53.757812 -25.144531 61.710938 -22.484375 72.703125 -22.484375 C 79.523438 -22.484375 85.644531 -23.523438 91.0625 -25.609375 C 96.476562 -27.691406 100.597656 -29.816406 103.421875 -31.984375 Z M 67.703125 -102.421875 C 59.210938 -102.421875 52.925781 -99.878906 48.84375 -94.796875 C 44.757812 -89.722656 42.300781 -82.941406 41.46875 -74.453125 L 87.9375 -74.453125 C 88.601562 -83.441406 87.226562 -90.347656 83.8125 -95.171875 C 80.40625 -100.003906 75.035156 -102.421875 67.703125 -102.421875 Z M 67.703125 -102.421875 "/></g></g></g><g fill="#000000" fill-opacity="1"><g transform="translate(847.146685, 302.562307)"><g><path d="M 90.6875 0 L 90.6875 -70.953125 C 90.6875 -81.109375 89.226562 -88.4375 86.3125 -92.9375 C 83.394531 -97.4375 78.441406 -99.6875 71.453125 -99.6875 C 65.285156 -99.6875 60.078125 -97.894531 55.828125 -94.3125 C 51.585938 -90.726562 48.550781 -86.269531 46.71875 -80.9375 L 46.71875 0 L 14.234375 0 L 14.234375 -124.90625 L 39.96875 -124.90625 L 43.71875 -108.421875 L 44.71875 -108.421875 C 48.550781 -113.753906 53.628906 -118.414062 59.953125 -122.40625 C 66.285156 -126.40625 74.445312 -128.40625 84.4375 -128.40625 C 90.601562 -128.40625 96.097656 -127.570312 100.921875 -125.90625 C 105.753906 -124.25 109.835938 -121.503906 113.171875 -117.671875 C 116.503906 -113.835938 119.003906 -108.628906 120.671875 -102.046875 C 122.335938 -95.472656 123.171875 -87.359375 123.171875 -77.703125 L 123.171875 0 Z M 90.6875 0 "/></g></g></g></svg>