<svg xmlns="http://www.w3.org/2000/svg" viewBox="0 0 100 100" fill="none">
  <path d="M84.918 38.594c.6-4.954-3.812-7.795-4.004-8.812-3.442-3.024-8.625-1.685-8.684-1.664l-.029.007c-1.866-.381-3.965-.61-6.329-.545-3.452.096-6.078.905-8.114 2.124a40.66 40.66 0 0 0-1.222-.069h-.001c-3.574-.188-6.784.557-9.508 1.976a23.27 23.27 0 0 0-1.286.732 19.57 19.57 0 0 0-9.442-2.26c-5.246.146-9.938 2.492-13.13 5.929-3.193 3.438-4.903 7.81-4.775 12.26.008.227.022.455.04.682-1.409 1.74-2.487 3.582-3.23 5.507-1.767 4.569-1.938 9.342-1.222 13.927.716 4.585 2.291 8.977 4.58 12.56.571.892 1.76 2.43 3.313 3.96 1.554 1.53 3.48 3.053 5.381 4.123 1.9 1.069 3.773 1.684 5.008 1.586 1.128-.09 1.973-.748 2.384-1.584.39-.792.501-1.789.447-2.8-.054-1.012-.272-2.039-.398-2.798-.127-.759-.161-1.25-.112-1.522.093-.173.28-.241.62-.199l.124.033c.76.206 1.574.282 2.407.257 1.667-.05 3.425-.537 5.064-1.304 1.639-.766 3.158-1.812 4.35-3.022 1.192-1.211 2.057-2.593 2.345-4.038a6.394 6.394 0 0 0 .124-.896c.051-.585.063-1.166.03-1.742 2.691-.61 5.563-2.07 7.926-3.915 2.843-2.225 5.027-5.062 6.012-8.177 1.12-1.064 2.09-2.33 2.844-3.778 1.32-2.534 1.97-5.512 1.53-8.699-.22-1.593-.715-3.241-1.465-4.807-.75-1.565-1.755-3.049-2.949-4.229-.596-.59-1.242-1.11-1.92-1.562.034-.38.072-.757.117-1.125.193-1.574.452-2.795.76-3.685.157-.445.32-.815.46-1.063.142-.247.245-.366.243-.366l.003-.002c.09-.095 1.36-.913.938-.823.38-.081 1.153-.048 2.056.088.903.135 2.015.404 3.163.844 1.148.441 2.335 1.055 3.482 1.889 1.147.835 2.253 1.891 3.162 3.25.48.716 1.254 1.66 2.048 2.555a26.27 26.27 0 0 0 2.2 2.166c.753.661 1.511 1.243 2.178 1.636.67.392 1.246.595 1.625.582.772-.027 2.707-.66 4.32-1.664 1.613-1.004 2.906-2.377 2.934-3.73.014-.677-.372-1.327-1.059-1.917-.687-.59-1.672-1.123-2.77-1.6-2.196-.954-4.856-1.764-6.688-2.303-1.833-.54-2.833-.806-2.833-.806z" fill="#004aad" fill-opacity="0.5"/>
</svg> 